<svg width="988" height="788" viewBox="0 0 988 788" fill="none" xmlns="http://www.w3.org/2000/svg">
<g id="undraw_science_fqhl 1">
<path id="Vector" opacity="0.17" d="M296.409 100.68C324.941 67.605 373.035 57.4928 417.44 56.4446C556.935 53.1605 688.188 117.843 803.291 193.639C844.964 221.071 886.21 250.93 915.008 290.972C973.674 372.464 967.6 492.259 901.031 568.466C878.374 594.391 850.077 615.165 820.815 633.845C768.791 667.125 712.026 695.017 650.919 706.524C607.332 714.704 562.53 714.384 518.316 711.232C394.766 702.434 271.714 671.167 165.781 609.455C119.311 582.295 74.786 547.631 52.7277 499.637C30.6695 451.642 37.3521 388.09 80.0311 355.286C97.6816 341.718 119.5 334.497 140.868 327.654C172.333 317.573 204.315 307.558 232.038 289.911C260.665 271.696 293.623 238.236 284.932 203.603C275.626 166.435 267.92 133.752 296.409 100.68Z" fill="#6F63FF"/>
<g id="Flask">
<path id="Vector_2" opacity="0.1" d="M513.32 778.33C570.62 778.33 617.07 773.669 617.07 767.92C617.07 762.171 570.62 757.51 513.32 757.51C456.02 757.51 409.57 762.171 409.57 767.92C409.57 773.669 456.02 778.33 513.32 778.33Z" fill="#3B395A"/>
<path id="Vector_3" opacity="0.9" d="M580.86 391.78V200.84H606.86V143.84H420.56V200.84H446.56V391.78C410.654 405.417 379.743 429.649 357.929 461.261C336.115 492.874 324.428 530.372 324.42 568.78C324.42 673.33 409.18 758.08 513.73 758.08C618.28 758.08 703.03 673.33 703.03 568.78C703.021 530.368 691.33 492.867 669.51 461.254C647.69 429.641 616.772 405.411 580.86 391.78Z" fill="#96B7FE"/>
<path id="Vector_4" opacity="0.1" d="M580.86 200.25H446.52V202.82H580.86V200.25Z" fill="black"/>
<path id="Vector_5" d="M407.81 563.7C407.81 563.7 521.81 561.7 578.81 533.17C635.81 504.64 668.38 530.11 665.32 547.42C662.26 564.73 645.99 598.3 580.85 602.42C515.71 606.54 407.81 563.7 407.81 563.7Z" fill="#048D8D"/>
<path id="liquid" d="M358.99 545.4C358.99 545.4 346.81 714.35 506.56 717.4C666.31 720.45 665.33 547.4 665.33 547.4C665.33 547.4 606.33 611.51 466.87 558.59C466.87 558.63 394.61 539.29 358.99 545.4Z" fill="#05FCFC"/>
<path id="bubble" d="M507.53 493.23C518.979 493.23 528.26 483.949 528.26 472.5C528.26 461.051 518.979 451.77 507.53 451.77C496.081 451.77 486.8 461.051 486.8 472.5C486.8 483.949 496.081 493.23 507.53 493.23Z" fill="#05FCFC"/>
<path id="bubble_2" d="M519.37 402.4C526.456 402.4 532.2 396.656 532.2 389.57C532.2 382.484 526.456 376.74 519.37 376.74C512.284 376.74 506.54 382.484 506.54 389.57C506.54 396.656 512.284 402.4 519.37 402.4Z" fill="#05FCFC"/>
<path id="bubble_3" d="M490.74 328.35C497.826 328.35 503.57 322.606 503.57 315.52C503.57 308.434 497.826 302.69 490.74 302.69C483.654 302.69 477.91 308.434 477.91 315.52C477.91 322.606 483.654 328.35 490.74 328.35Z" fill="#05FCFC"/>
<path id="bubble_4" d="M480.37 105.74C491.819 105.74 501.1 96.4589 501.1 85.01C501.1 73.5611 491.819 64.28 480.37 64.28C468.921 64.28 459.64 73.5611 459.64 85.01C459.64 96.4589 468.921 105.74 480.37 105.74Z" fill="#05FCFC"/>
<path id="bubble_5" d="M542.56 64.88C551.071 64.88 557.97 57.9807 557.97 49.47C557.97 40.9593 551.071 34.06 542.56 34.06C534.049 34.06 527.15 40.9593 527.15 49.47C527.15 57.9807 534.049 64.88 542.56 64.88Z" fill="#05FCFC"/>
<path id="bubble_6" d="M498.14 16.02C502.564 16.02 506.15 12.4338 506.15 8.01C506.15 3.5862 502.564 0 498.14 0C493.716 0 490.13 3.5862 490.13 8.01C490.13 12.4338 493.716 16.02 498.14 16.02Z" fill="#05FCFC"/>
<path id="Vector_6" opacity="0.1" d="M664.81 548.01C661.62 586.93 640.93 708.76 506.62 706.19C374.96 703.7 360.05 588.6 358.88 548.11C358.15 569.84 358.8 714.56 506.59 717.39C666.38 720.39 665.36 547.39 665.36 547.39C665.36 547.39 665.16 547.64 664.81 548.01Z" fill="black"/>
<path id="Vector_7" opacity="0.2" d="M380.81 488.49C379.71 497.23 379.93 508.17 387.74 512.25C381.19 508.83 408.04 470.05 404.23 462.13C396.08 445.23 381.81 480.37 380.81 488.49Z" fill="white"/>
</g>
<g id="test-tube">
<path id="Vector_8" opacity="0.9" d="M283.81 263.18H116.28V312.87H141.81V700.53C141.709 708.243 143.141 715.899 146.023 723.055C148.904 730.21 153.179 736.721 158.597 742.211C164.016 747.702 170.471 752.061 177.588 755.036C184.704 758.011 192.341 759.543 200.055 759.543C207.769 759.543 215.406 758.011 222.522 755.036C229.639 752.061 236.094 747.702 241.513 742.211C246.931 736.721 251.206 730.21 254.087 723.055C256.969 715.899 258.401 708.243 258.3 700.53V312.87H283.81V263.18Z" fill="#96B7FE"/>
<path id="Vector_9" d="M180.62 400.7C180.62 400.7 222.08 385.89 233.62 396.42C233.62 396.42 216.83 421.1 201.37 420.11C185.91 419.12 180.62 400.7 180.62 400.7Z" fill="#961C8A"/>
<path id="Vector_10" opacity="0.1" d="M198.99 767.99C242.482 767.99 277.74 765.814 277.74 763.13C277.74 760.446 242.482 758.27 198.99 758.27C155.498 758.27 120.24 760.446 120.24 763.13C120.24 765.814 155.498 767.99 198.99 767.99Z" fill="#3B395A"/>
<path id="liquid_2" d="M233.6 396.46V677.82C233.6 682.487 232.681 687.109 230.895 691.421C229.109 695.733 226.491 699.65 223.191 702.951C219.89 706.251 215.972 708.869 211.661 710.655C207.349 712.441 202.727 713.36 198.06 713.36C188.634 713.36 179.594 709.616 172.929 702.951C166.264 696.286 162.52 687.246 162.52 677.82V396.46C162.52 396.46 179.63 391.85 195.75 401.73C211.87 411.61 233.6 396.46 233.6 396.46Z" fill="#FA7CED"/>
<path id="Vector_11" opacity="0.1" d="M258.28 312.56H141.79V314.85H258.28V312.56Z" fill="black"/>
<path id="bubble_7" d="M213.09 232.09C222.805 232.09 230.68 224.215 230.68 214.5C230.68 204.785 222.805 196.91 213.09 196.91C203.375 196.91 195.5 204.785 195.5 214.5C195.5 224.215 203.375 232.09 213.09 232.09Z" fill="#FA7CED"/>
<path id="bubble_8" d="M160.32 197.42C167.544 197.42 173.4 191.564 173.4 184.34C173.4 177.116 167.544 171.26 160.32 171.26C153.096 171.26 147.24 177.116 147.24 184.34C147.24 191.564 153.096 197.42 160.32 197.42Z" fill="#FA7CED"/>
<path id="bubble_9" d="M198.01 155.96C201.766 155.96 204.81 152.916 204.81 149.16C204.81 145.404 201.766 142.36 198.01 142.36C194.254 142.36 191.21 145.404 191.21 149.16C191.21 152.916 194.254 155.96 198.01 155.96Z" fill="#FA7CED"/>
<path id="bubble_10" d="M198.07 368.83C202.069 368.83 205.31 365.589 205.31 361.59C205.31 357.591 202.069 354.35 198.07 354.35C194.071 354.35 190.83 357.591 190.83 361.59C190.83 365.589 194.071 368.83 198.07 368.83Z" fill="#FA7CED"/>
<path id="bubble_11" d="M221.76 340.53C224.306 340.53 226.37 338.466 226.37 335.92C226.37 333.374 224.306 331.31 221.76 331.31C219.214 331.31 217.15 333.374 217.15 335.92C217.15 338.466 219.214 340.53 221.76 340.53Z" fill="#FA7CED"/>
<path id="bubble_12" d="M189.51 331.32C192.056 331.32 194.12 329.256 194.12 326.71C194.12 324.164 192.056 322.1 189.51 322.1C186.964 322.1 184.9 324.164 184.9 326.71C184.9 329.256 186.964 331.32 189.51 331.32Z" fill="#FA7CED"/>
<path id="Vector_12" opacity="0.1" d="M198.06 696.25C193.392 696.25 188.77 695.33 184.457 693.544C180.145 691.757 176.226 689.138 172.926 685.837C169.626 682.536 167.008 678.617 165.222 674.304C163.437 669.991 162.519 665.368 162.52 660.7V678.47C162.52 687.896 166.264 696.936 172.929 703.601C179.594 710.266 188.634 714.01 198.06 714.01C207.486 714.01 216.526 710.266 223.191 703.601C229.856 696.936 233.6 687.896 233.6 678.47V660.7C233.601 665.368 232.683 669.991 230.898 674.304C229.112 678.617 226.494 682.536 223.194 685.837C219.894 689.138 215.975 691.757 211.663 693.544C207.35 695.33 202.728 696.25 198.06 696.25Z" fill="black"/>
<path id="Vector_13" opacity="0.2" d="M150.81 453.94C149.71 462.68 149.93 473.62 157.74 477.7C151.18 474.28 178.04 435.51 174.23 427.58C166.06 410.7 151.81 445.83 150.81 453.94Z" fill="white"/>
</g>
<g id="head">
<path id="Vector_14" d="M842.13 274.76C842.13 274.76 840.61 276.2 838.31 278.35C835.04 281.4 830.2 285.87 825.9 289.62C819.9 294.8 815.05 298.62 816.8 295.35C818.55 292.08 818.22 286.46 817.35 281.17L817.17 280.12C816.444 276.235 815.482 272.398 814.29 268.63C814.29 268.63 823.9 256.21 829.22 251.31C831.22 249.48 832.59 248.7 832.66 249.98C832.76 251.72 834.07 255.52 835.66 259.64C835.72 259.76 835.77 259.89 835.82 260.01C836.9 262.78 838.11 265.67 839.18 268.14C840.81 271.93 842.13 274.76 842.13 274.76Z" fill="#FFB0B1"/>
<path id="Vector_15" d="M836.28 253.88C836.286 255.816 836.082 257.748 835.67 259.64C834.926 263.176 833.485 266.528 831.43 269.5C827.695 274.932 822.136 278.846 815.762 280.531C809.388 282.215 802.622 281.559 796.69 278.682C790.759 275.804 786.055 270.895 783.433 264.847C780.811 258.798 780.445 252.009 782.4 245.713C784.355 239.417 788.502 234.03 794.089 230.53C799.675 227.03 806.332 225.649 812.85 226.637C819.368 227.625 825.317 230.917 829.615 235.915C833.914 240.913 836.279 247.287 836.28 253.88Z" fill="#FFB0B1"/>
<path id="Vector_16" d="M784.81 226.09C786.14 223.38 786.81 220.35 788.39 217.79C790.72 214.04 794.8 211.69 798.97 210.25C809.89 206.49 832.97 201.02 839.86 210.25C841.22 212.08 842.34 214.18 844.22 215.47C845.74 216.298 847.321 217.006 848.95 217.59C853.35 219.66 856.16 224.15 857.66 228.77C859.16 233.39 859.6 238.29 860.66 243.03C862.06 249.09 864.53 254.84 866.98 260.56C869.87 267.31 872.98 274.3 878.52 279.08C886.13 285.59 887.84 294.8 894.87 301.93C903.24 310.41 902.97 324.4 898.66 335.5C897.946 336.904 897.601 338.466 897.66 340.04C898.065 341.647 898.923 343.105 900.13 344.24L904.7 349.4C899.241 350.578 893.547 349.946 888.48 347.601C883.412 345.255 879.245 341.324 876.61 336.4C875.05 333.33 874.02 329.8 871.36 327.62C868.98 325.67 865.77 325.2 862.81 324.32C853.04 321.43 844.81 312.5 844.53 302.32C844.39 297.54 845.88 292.74 845.21 288C844.809 285.344 843.742 282.833 842.11 280.7C839.54 277.36 835.69 275.09 833.61 271.43C830.09 265.22 832.76 257.14 830.22 250.43C829.44 248.43 827.88 246.34 825.7 246.18C823.52 246.02 821.64 247.84 819.56 248.65C815.2 250.34 810.5 247.46 806.87 244.52C803.24 241.58 799.13 238.23 794.51 238.89C791.45 239.32 789.04 241.4 786.22 242.48C784.14 243.28 779.92 244 778.09 242.24C774.26 238.56 783.17 229.38 784.81 226.09Z" fill="#233A67"/>
</g>
<g id="body">
<path id="Vector_17" d="M831.13 321.38L825.59 404.18L825.01 412.95L800.33 411.48L799.33 411.42L780.72 410.31L781.97 366.05L786.97 343.79L799.36 311.36L806.81 300.64L815.58 287.98L817.92 284.68C817.92 284.68 819.47 294.15 825.18 289.97L825.29 289.89C830.86 286.31 831.13 321.38 831.13 321.38Z" fill="#1D2366"/>
<path id="Vector_18" d="M737.01 366.42C737.01 366.42 724.01 380.34 733.85 388.13C743.69 395.92 750.18 388.88 750.18 388.88L737.01 366.42Z" fill="#C7DAF5"/>
<path id="Vector_19" opacity="0.1" d="M805.49 740.83C856.482 740.83 897.82 734.378 897.82 726.42C897.82 718.462 856.482 712.01 805.49 712.01C754.498 712.01 713.16 718.462 713.16 726.42C713.16 734.378 754.498 740.83 805.49 740.83Z" fill="#3B395A"/>
<path id="Vector_20" d="M786 641.43C781.53 654.16 782.81 671.35 783.81 679.7C784.18 682.79 784.52 684.7 784.52 684.7C784.52 684.7 777.84 699.92 777.28 700.48C776.72 701.04 757.6 712.7 757.6 712.7L744.24 720.49C744.24 720.49 730.69 714.55 737.24 712.49C738.566 711.956 739.76 711.141 740.74 710.1C747.22 703.92 755.43 688.55 755.43 688.55C755.43 688.55 755.98 680.76 758.02 677.05C760.06 673.34 759.32 634.37 759.32 634.37L759.49 570.83V562.55L784.91 562.74C785.074 565.553 785.442 568.35 786.01 571.11C786.926 575.866 788.108 580.567 789.55 585.19C793.97 599.7 792.12 623.98 786 641.43Z" fill="#FFB0B1"/>
<path id="Vector_21" d="M784.05 680.58L745.73 715.1L741.27 715.28L740.35 708.79C740.35 708.79 732.55 718.79 715.29 718.25C715.29 718.25 704.9 725.12 720.29 725.49C735.68 725.86 755.37 724.93 755.37 724.93C755.37 724.93 769.1 703.59 780.6 706.38V722.52H784.13V706.19C785.772 705.084 787.173 703.657 788.249 701.995C789.325 700.333 790.053 698.471 790.39 696.52C790.698 694.51 790.482 692.455 789.764 690.553C789.045 688.65 787.849 686.965 786.29 685.66C785.59 685.011 785.03 684.225 784.645 683.352C784.26 682.478 784.057 681.535 784.05 680.58Z" fill="#1D2366"/>
<path id="Vector_22" d="M874.14 661.28C871.67 670.11 873.02 675.08 874.7 677.75V677.81C876.885 681.114 878.403 684.814 879.17 688.7L879.33 689.54L861.89 714.96L852.43 718.67C852.43 718.67 837.21 713.48 839.99 711.99C840.69 711.62 841.78 709.7 842.99 706.99C846.72 698.99 851.84 684.13 851.84 684.13V684C852.37 677.87 853.23 671.77 854.18 665.69C855.88 654.76 852.76 627.9 852.76 627.9C852.76 627.9 851.65 595.25 849.23 587.82C848.142 584.044 847.415 580.173 847.06 576.26C846.56 571.59 846.45 567.78 846.45 567.78C846.45 567.78 856.45 553.86 874.84 568.89C876.303 570.097 877.592 571.5 878.67 573.06C891.36 591.06 881.15 630.87 881.15 630.87C881.15 630.87 878.59 645.33 874.14 661.28Z" fill="#FFB0B1"/>
<path id="Vector_23" d="M853.35 713.61C853.35 713.61 848.71 705.08 839.81 708.23C839.81 708.23 834.81 718.44 829.81 720.11C824.81 721.78 826.47 727.34 837.81 725.3C849.15 723.26 866.2 721.59 866.2 721.59L866.94 711.2L878.44 696.54C878.44 696.54 885.31 690.32 875.1 678.08V680.21C875.1 680.21 877.1 688.56 874.73 689.86C872.36 691.16 861.56 712.31 861.56 712.31L853.35 713.61Z" fill="#1D2366"/>
<path id="Vector_24" d="M879.7 573.7C879.7 573.7 814.57 576.85 794.7 571.29C774.83 565.73 755.18 570.54 752.21 569.24C749.24 567.94 751.66 547.72 754.21 542.71C756.76 537.7 771.1 487.04 771.1 487.04L784.83 415.41L799.31 411.41L800.31 411.13L825.52 404.13L844.01 399.03C844.01 399.03 880.75 542.47 877.59 553.03C876.445 557.082 876.263 561.345 877.06 565.48C877.555 568.329 878.443 571.096 879.7 573.7Z" fill="#1D2366"/>
<path id="Vector_25" opacity="0.03" d="M787.66 335.99C787.66 335.99 785.44 340.63 780.98 339.89C776.52 339.15 776.53 356.59 776.53 356.59C776.53 356.59 773.53 359.37 771.53 356.96C769.53 354.55 764.11 362.71 764.11 362.71L730.34 364.2C730.34 364.2 745.34 371.06 742.4 391.85C742.4 391.85 793.4 388.69 795.1 383.85C796.8 379.01 787.66 335.99 787.66 335.99Z" fill="black"/>
<path id="Vector_26" d="M689.5 375.14L698.41 382.75L771.71 398.15L762.61 388.88L689.5 375.14Z" fill="white"/>
<path id="Vector_27" d="M815.68 290.34C814.47 292.16 810.99 301.72 808.07 310.03C805.65 316.95 803.62 323.03 803.62 323.03C803.62 323.03 798.89 353.84 796.48 359.4C794.07 364.96 795.37 386.7 795.37 386.7L786.37 440.33C786.37 440.33 782.29 467.98 775.99 484.49C769.81 500.7 762.81 508.33 762.62 508.56C765.41 504.79 780.62 430.45 780.62 430.45L785.62 336.73C785.62 336.73 786.36 327.83 787.11 320.22C787.86 312.61 802.88 302.22 802.88 302.22L817.4 281.57C818.89 283.6 817.91 287 815.68 290.34Z" fill="white"/>
<path id="Vector_28" d="M777.81 410.77C777.81 410.77 756.47 409.85 746.08 397.41C735.69 384.97 770.02 392.41 770.02 392.41L778.92 394.41L777.81 410.77Z" fill="#FFB0B1"/>
<path id="Vector_29" d="M901.6 558.85C876.18 571.47 829.97 559.78 829.97 559.78C825.33 564.05 813.08 570.36 813.08 570.36L806.4 487.59C802.14 476.46 800.47 418.01 800.47 418.01C800.47 418.01 805.85 374.4 808.07 369.95C808.72 368.65 808.41 366.72 807.64 364.64C803.846 354.726 802.451 344.056 803.57 333.5L805.35 318.35L805.85 314.1C814.57 310.2 821.25 297.76 821.25 297.76L825.9 289.62L834.46 274.62L838.51 267.52L839.19 268.14L844.45 272.9C844.45 272.9 846.68 274.74 850.02 277.57C857.3 283.7 869.88 294.5 876.36 301.1C882.07 306.93 883.87 329.56 884.36 346.6C884.71 357.81 884.5 366.6 884.5 366.6C878.74 376.06 893.77 452.15 893.77 452.15C897.33 466.81 901.6 558.85 901.6 558.85Z" fill="white"/>
<path id="Vector_30" opacity="0.03" d="M850.57 294.8C850.57 294.8 833.13 328.01 835.17 340.63C837.21 353.25 842.96 367.54 840.17 370.88C839.216 372.145 837.981 373.171 836.564 373.879C835.147 374.587 833.584 374.957 832 374.96C829.22 375.15 821.8 380.34 821.8 380.9C821.8 381.46 814.93 381.45 808.8 384.05C802.67 386.65 793.58 388.13 793.58 388.13C793.58 388.13 775.95 387.58 774.28 389.25C772.61 390.92 770.94 400.94 774.47 408.92C778 416.9 781.89 422.84 784.86 423.92C787.83 425 806.57 418.72 821.79 417.24C837.01 415.76 853.54 403.7 853.54 403.7C853.54 403.7 871.72 397.21 874.88 386.26C878.04 375.31 870.98 315.19 870.98 315.19C870.98 315.19 865.6 287.19 850.57 294.8Z" fill="black"/>
<path id="Vector_31" d="M852.24 295.91C852.24 295.91 834.81 329.13 836.81 341.7C838.81 354.27 844.6 368.61 841.81 371.95C840.857 373.216 839.623 374.244 838.206 374.952C836.788 375.66 835.225 376.029 833.64 376.03C830.86 376.22 823.44 381.41 823.44 381.97C823.44 382.53 816.57 382.53 810.44 385.13C804.31 387.73 795.22 389.21 795.22 389.21C795.22 389.21 777.59 388.65 775.92 390.32C774.25 391.99 772.58 402.01 776.11 409.99C779.64 417.97 783.53 423.91 786.5 424.99C789.47 426.07 808.21 419.8 823.43 418.31C838.65 416.82 855.16 404.77 855.16 404.77C855.16 404.77 873.34 398.27 876.5 387.32C879.66 376.37 872.6 316.25 872.6 316.25C872.6 316.25 867.27 288.3 852.24 295.91Z" fill="white"/>
<path id="Vector_32" d="M730.88 364.18C724.16 364.41 709.61 366.47 717.15 380.53C723.82 392.97 735.02 384.66 741.29 378.34C739.76 372.462 736.034 367.394 730.88 364.18Z" fill="#FFB0B1"/>
<path id="Vector_33" d="M850.02 277.57C842.88 282.44 836.89 286.57 835.73 287.42C832.52 289.79 826.4 303.7 822.5 310.8C819.36 316.52 809.19 317.99 805.35 318.35L805.85 314.1C814.57 310.2 821.25 297.76 821.25 297.76L838.51 267.52L844.45 272.9C844.45 272.9 846.68 274.7 850.02 277.57Z" fill="#DCE7FF"/>
<path id="Vector_34" d="M815.68 290.34C814.47 292.16 810.99 301.72 808.07 310.03C805.35 308.98 802.88 302.22 802.88 302.22L817.4 281.57C818.89 283.6 817.91 287 815.68 290.34Z" fill="#DCE7FF"/>
<path id="Vector_35" d="M731.27 385.3L723.22 359.95C723.123 359.652 723.087 359.338 723.112 359.025C723.137 358.713 723.224 358.409 723.367 358.13C723.51 357.852 723.707 357.604 723.946 357.401C724.185 357.199 724.462 357.045 724.76 356.95C725.058 356.851 725.373 356.812 725.686 356.836C725.999 356.86 726.304 356.946 726.584 357.09C726.863 357.233 727.111 357.431 727.313 357.671C727.515 357.912 727.667 358.19 727.76 358.49L735.81 383.86L735.01 389.17L731.27 385.3Z" fill="#BE8B87"/>
<path id="Vector_36" d="M870.61 703.96L869.5 717.14L873.21 716.39L872.65 702.11L870.61 703.96Z" fill="#1D2366"/>
<path id="Vector_37" opacity="0.1" d="M879.7 575.37C879.7 575.37 864.82 576.09 847.1 576.24C846.6 571.57 846.49 567.76 846.49 567.76C846.49 567.76 856.49 553.84 874.88 568.87C876.343 570.077 877.632 571.48 878.71 573.04C879 573.833 879.33 574.611 879.7 575.37Z" fill="black"/>
<path id="Vector_38" opacity="0.1" d="M875.44 485C875.44 485 869.13 489.27 881.19 499.1C893.25 508.93 875.44 485 875.44 485Z" fill="black"/>
<path id="Vector_39" opacity="0.1" d="M863.37 520.07C863.37 520.63 861.15 540.48 869.5 545.49C877.85 550.5 863.37 520.07 863.37 520.07Z" fill="black"/>
<path id="Vector_40" d="M787.66 335.99C787.66 335.99 785.44 340.63 780.98 339.89C776.52 339.15 776.53 356.59 776.53 356.59C776.53 356.59 773.53 359.37 771.53 356.96C769.53 354.55 764.11 362.71 764.11 362.71L730.34 364.2C730.34 364.2 745.34 371.06 742.4 391.85C742.4 391.85 793.4 388.69 795.1 383.85C796.8 379.01 787.66 335.99 787.66 335.99Z" fill="white"/>
<path id="Vector_41" opacity="0.1" d="M851.87 384.98C851.87 384.98 837.95 382.2 842.78 386.84C847.61 391.48 847.6 395.56 853.54 395.37C859.48 395.18 851.87 384.98 851.87 384.98Z" fill="black"/>
<path id="Vector_42" d="M741.4 378.23C741.5 378.14 741.59 378.04 741.68 377.95C741.59 378.04 741.5 378.14 741.4 378.23Z" fill="#FFB0B1"/>
<path id="Vector_43" opacity="0.1" d="M723.98 357.7C724.279 357.604 724.594 357.568 724.906 357.593C725.219 357.619 725.524 357.707 725.802 357.851C726.081 357.995 726.329 358.193 726.531 358.433C726.733 358.673 726.886 358.951 726.98 359.25L735.03 384.6L734.42 388.6L735.01 389.21L735.81 383.9L727.76 358.55C727.667 358.25 727.515 357.972 727.313 357.731C727.111 357.491 726.863 357.293 726.584 357.15C726.304 357.006 725.999 356.92 725.686 356.896C725.373 356.872 725.058 356.911 724.76 357.01C724.259 357.166 723.825 357.486 723.53 357.92C723.671 357.83 723.822 357.757 723.98 357.7Z" fill="white"/>
<path id="Vector_44" d="M731.27 385.3L735.79 383.86L735.13 388.22L734.99 389.17L733.67 387.79L731.27 385.3Z" fill="#EFC8C4"/>
<path id="Vector_45" d="M733.67 387.79C733.753 387.694 733.851 387.613 733.96 387.55C734.025 387.51 734.099 387.489 734.175 387.489C734.251 387.489 734.325 387.51 734.39 387.55C734.455 387.625 734.509 387.709 734.55 387.8C734.61 387.905 734.694 387.995 734.794 388.063C734.895 388.13 735.01 388.174 735.13 388.19L734.99 389.19L733.67 387.79Z" fill="#727A9C"/>
<path id="Vector_46" d="M723.18 368.93C723.18 368.93 739.33 368.84 735.52 375.7C731.71 382.56 725.78 383.4 725.78 383.4L723.18 368.93Z" fill="#FFB0B1"/>
</g>
</g>
</svg>
